<?xml version="1.0" encoding="utf-8"?>
<!-- Generator: Adobe Illustrator 16.0.4, SVG Export Plug-In . SVG Version: 6.00 Build 0)  -->
<!DOCTYPE svg PUBLIC "-//W3C//DTD SVG 1.1//EN" "http://www.w3.org/Graphics/SVG/1.1/DTD/svg11.dtd">
<svg version="1.1" id="Layer_1" xmlns="http://www.w3.org/2000/svg" xmlns:xlink="http://www.w3.org/1999/xlink" x="0px" y="0px"
	 width="311.304px" height="107.095px" viewBox="0 0 311.304 107.095" enable-background="new 0 0 311.304 107.095"
	 xml:space="preserve">
<g>
	<g>
		<g>
			<path fill="#231F20" d="M102.127,8.584c-0.21,0-0.414,0.013-0.622,0.018c0,0.011,0.001,0.021,0,0.033
				c-0.019,0.333-0.037,0.665-0.055,0.997c0.004,0.453-0.002,0.904-0.009,1.354c0.106,0.001,0.203-0.008,0.311-0.006
				c10.402,0.166,19.684,8.008,19.684,23.275c0,18.412-18.222,22.725-31.582,22.483l-0.139,0.684
				c18.938,0.918,38.457-11.059,38.457-24.962C128.173,17.64,116.947,8.584,102.127,8.584z"/>
		</g>
		<g>
			<path fill="#231F20" d="M58.982,100.441c-0.119,0-0.475,0.119-0.891,0.297c-1.96,0.832-6.119,2.199-9.029,2.496
				c-1.01,0.119-1.604,0-1.782,0c-0.238,0-0.535,0.178-0.238,0.713c0.654,1.188,1.069,2.02,1.485,2.613
				c0.297,0.416,0.416,0.535,0.594,0.535c0.297,0,0.654-0.18,1.664-0.773c0.416-0.236,5.94-3.564,8.079-5.049
				c0.297-0.178,0.416-0.297,0.416-0.475C59.279,100.56,59.101,100.441,58.982,100.441z"/>
			<path fill="#231F20" d="M62.417,94.912c-8.732,0.479-14.445-7.029-14.612-18.588c-0.171-11.785,9.25-15.682,14.508-16.766
				c11.811-2.438,27.186-2.152,27.501-2.135c0.006-0.367,0,0,0.042-0.686c-9.392-0.131-15.459-1.008-26.73-0.051
				c-12.341,0.221-20.667,9.912-20.667,21.062c0,11.557,8.07,19.141,20.065,18.926C62.415,96.103,62.453,95.501,62.417,94.912z"/>
		</g>
		<path fill="#231F20" d="M104.884,11.269c-6.73-1.35-24.593,3.222-18.173,27.086c2.46,9.146,10.933,54.729-24.187,58.321
			c-0.098,0.01-0.211-1.744-0.211-1.744c25.06-4.348,17.367-47.775,15.465-56.502c-5.247-29.92,23.727-29.827,23.727-29.827"/>
	</g>
	<g>
		<path fill="#231F20" d="M67.954,48.024c0.299,2.697,0.823,6.893,4.04,7.942c2.17,0.674,4.115,0.674,4.863,0.674
			c0.374,0,0.598,0.075,0.598,0.375c0,0.449-0.673,0.674-1.571,0.674c-1.646,0-9.726-0.225-12.494-0.449
			c-1.721-0.15-1.221,0.37-1.221-0.004c0-0.3,0.164-0.206,0.164-1.096c0-0.382-0.065-1.522-0.214-2.871L58.527,14.61h-0.225
			L39.973,53.568c-1.571,3.296-1.795,3.971-2.469,3.971c-0.524,0-0.898-0.749-2.319-3.446c-1.945-3.671-8.379-16.633-8.753-17.382
			c-0.673-1.349-9.052-19.33-9.875-21.353h-0.299l-2.993,34.763c-0.075,1.199-0.075,2.547-0.075,3.821
			c0,1.124,0.823,2.098,1.945,2.322c1.272,0.3,2.394,0.375,2.843,0.375c0.299,0,0.598,0.15,0.598,0.375
			c0,0.524-0.449,0.674-1.347,0.674c-2.768,0-6.359-0.225-6.958-0.225c-0.673,0-4.264,0.225-6.284,0.225
			c-0.749,0-1.272-0.149-1.272-0.674c0-0.225,0.374-0.375,0.748-0.375c0.599,0,1.122,0,2.245-0.225
			c2.469-0.449,2.693-3.372,2.992-6.218l5.387-48.849C14.162,0.525,14.461,0,14.911,0c0.449,0,0.748,0.3,1.122,1.124l22.893,47.125
			l21.995-47.05C61.22,0.525,61.52,0,62.043,0c0.524,0,0.749,0.6,0.898,2.023L67.954,48.024z"/>
		<path fill="#231F20" d="M138.59,27.946c0-9.89,0-11.688-0.15-13.71c-0.149-2.173-0.523-3.222-2.693-3.521
			c-0.524-0.075-1.646-0.15-2.245-0.15c-0.225,0-0.523-0.3-0.523-0.524c0-0.375,0.299-0.524,1.047-0.524
			c2.992,0,7.257,0.15,7.631,0.15c0.449,0,14.214,0.075,15.71,0c1.272-0.075,2.47-0.3,2.993-0.375c0.299-0.075,0.599-0.3,0.897-0.3
			c0.225,0,0.3,0.3,0.3,0.599c0,0.45-0.375,1.199-0.524,2.997c-0.074,0.599-0.225,3.446-0.374,4.195
			c-0.074,0.3-0.299,0.674-0.599,0.674c-0.374,0-0.523-0.299-0.523-0.824c0-0.45-0.075-1.499-0.374-2.248
			c-0.449-1.049-1.122-1.498-4.713-1.948c-1.122-0.15-8.753-0.225-9.502-0.225c-0.299,0-0.374,0.225-0.374,0.674v17.307
			c0,0.449,0,0.674,0.374,0.674c0.823,0,9.502,0,10.998-0.15c1.571-0.15,2.544-0.225,3.217-0.899
			c0.449-0.45,0.748-0.824,0.973-0.824s0.374,0.15,0.374,0.524s-0.374,1.423-0.523,3.521c-0.149,1.274-0.3,3.671-0.3,4.121
			c0,0.524-0.149,1.199-0.599,1.199c-0.299,0-0.448-0.225-0.448-0.599c0-0.6,0-1.273-0.3-2.098
			c-0.225-0.899-0.822-1.648-3.366-1.948c-1.796-0.225-8.828-0.299-9.95-0.299c-0.374,0-0.449,0.225-0.449,0.449v5.319
			c0,2.173-0.075,9.59,0,10.864c0.15,4.271,1.347,5.095,7.855,5.095c1.721,0,4.863,0,6.584-0.675
			c1.721-0.749,2.618-1.873,2.992-4.42c0.149-0.75,0.3-0.974,0.674-0.974s0.448,0.524,0.448,0.974c0,0.449-0.523,4.795-0.897,6.144
			c-0.449,1.648-1.122,1.648-3.666,1.648c-4.938,0-8.753-0.15-11.446-0.226c-2.768-0.149-4.489-0.149-5.461-0.149
			c-0.15,0-1.421,0-2.843,0.075c-1.272,0.074-2.769,0.149-3.816,0.149c-0.673,0-1.047-0.149-1.047-0.524
			c0-0.225,0.15-0.524,0.524-0.524c0.599,0,1.421-0.225,2.02-0.3c1.272-0.225,1.421-1.498,1.721-3.371
			c0.374-2.623,0.374-7.642,0.374-13.786V27.946z"/>
		<path fill="#231F20" d="M175.326,27.946c0-9.89,0-11.688-0.149-13.71c-0.149-2.173-0.523-3.372-2.693-3.671
			c-0.523-0.075-1.646-0.15-2.244-0.15c-0.225,0-0.523-0.15-0.523-0.375c0-0.375,0.299-0.524,1.047-0.524
			c2.993,0,7.257,0.15,7.631,0.15c1.571,0,4.639-0.15,7.706-0.15c10.998,0,13.841,6.368,13.841,9.74
			c0,5.02-3.292,8.167-6.658,11.163c5.013,1.499,11.596,6.069,11.596,13.261c0,7.117-5.312,14.16-16.534,14.16
			c-1.196,0-3.591-0.075-5.686-0.226c-2.095-0.074-3.965-0.149-4.265-0.149c-0.149,0-1.347,0.075-2.693,0.075
			c-1.346,0.074-2.917,0.149-3.965,0.149c-0.673,0-1.047-0.149-1.047-0.524c0-0.225,0.149-0.374,0.523-0.374
			c0.599,0,1.422-0.226,2.02-0.3c1.272-0.226,1.422-1.648,1.721-3.521c0.374-2.623,0.374-7.642,0.374-13.786V27.946z
			 M181.013,29.294c0,0.449,0.149,0.599,0.448,0.674c0.374,0.075,1.571,0.3,4.04,0.3c3.666,0,5.088-0.15,6.435-1.648
			c1.421-1.574,2.543-3.746,2.543-6.818c0-4.87-2.692-10.264-9.276-10.264c-0.748,0-2.319,0.075-3.367,0.3
			c-0.598,0.149-0.822,0.299-0.822,0.674V29.294z M181.013,36.337c0,4.945,0,12.586,0.074,13.561
			c0.225,3.072,0.225,3.821,2.245,4.794c1.795,0.824,4.563,0.899,5.761,0.899c4.339,0,9.65-1.648,9.65-9.814
			c0-2.847-1.122-8.316-6.284-11.613c-2.244-1.423-4.339-1.349-5.91-1.648c-0.823-0.15-4.115-0.15-5.162-0.15
			c-0.225,0-0.374,0.15-0.374,0.45V36.337z"/>
		<path fill="#231F20" d="M220.519,39.184c0,6.144,0,11.163,0.3,13.786c0.224,1.873,0.448,3.071,2.394,3.371
			c0.973,0.15,2.395,0.3,2.993,0.3c0.374,0,0.523,0.3,0.523,0.524c0,0.3-0.3,0.524-1.048,0.524c-3.666,0-7.93-0.225-8.229-0.225
			c-0.374,0-4.488,0.225-6.509,0.225c-0.673,0-1.047-0.149-1.047-0.524c0-0.225,0.149-0.524,0.523-0.524
			c0.599,0,1.422-0.149,2.02-0.3c1.272-0.3,1.497-1.498,1.721-3.371c0.3-2.623,0.374-7.642,0.374-13.786V27.946
			c0-9.89,0-11.688-0.149-13.71c-0.149-2.173-0.673-3.147-2.095-3.447c-0.748-0.149-1.571-0.225-2.02-0.225
			c-0.3,0-0.524-0.3-0.524-0.524c0-0.375,0.3-0.524,1.048-0.524c2.17,0,6.284,0.15,6.658,0.15c0.3,0,4.563-0.15,6.584-0.15
			c0.748,0,1.047,0.15,1.047,0.524c0,0.225-0.299,0.524-0.523,0.524c-0.449,0-0.897,0-1.646,0.15
			c-1.796,0.375-2.17,1.273-2.319,3.521c-0.075,2.022-0.075,3.821-0.075,13.71V39.184z"/>
		<path fill="#231F20" d="M235.782,27.946c0-9.89,0-11.688-0.149-13.71c-0.149-2.023-0.523-3.222-2.693-3.521
			c-0.523-0.075-1.646-0.15-2.244-0.15c-0.225,0-0.524-0.3-0.524-0.524c0-0.375,0.3-0.524,1.048-0.524
			c2.992,0,6.958,0.15,7.556,0.15c0.599,0,4.714-0.15,6.659-0.15c0.748,0,1.122,0.15,1.122,0.524c0,0.225-0.3,0.524-0.599,0.524
			c-0.449,0-0.823,0-1.646,0.15c-1.722,0.3-2.096,1.423-2.245,3.521c-0.149,2.022-0.149,3.821-0.149,13.71v8.916
			c0,9.215,2.02,13.036,4.863,15.583c3.217,2.922,6.06,3.446,9.8,3.446c4.04,0,7.931-1.798,10.175-4.495
			c3.067-3.671,3.741-8.916,3.741-15.434v-8.016c0-9.89-0.075-11.688-0.149-13.71c-0.075-2.023-0.449-3.222-2.619-3.521
			c-0.523-0.075-1.646-0.15-2.244-0.15c-0.299,0-0.523-0.3-0.523-0.524c0-0.375,0.299-0.524,1.047-0.524
			c2.918,0,6.733,0.15,7.107,0.15c0.449,0,3.591-0.15,5.536-0.15c0.748,0,1.048,0.15,1.048,0.524c0,0.225-0.225,0.524-0.524,0.524
			c-0.448,0-0.822,0-1.646,0.15c-1.796,0.375-2.17,1.423-2.319,3.521c-0.149,2.022-0.074,3.821-0.074,13.71v6.817
			c0,6.893-0.898,14.61-6.135,19.105c-4.788,4.121-9.876,4.645-13.767,4.645c-2.169,0-9.052-0.149-13.69-4.495
			c-3.217-2.997-5.761-7.417-5.761-16.708V27.946z"/>
		<path fill="#231F20" d="M283.892,56.791c-0.897-0.45-0.973-0.675-0.973-2.397c0-3.147,0.3-5.694,0.374-6.743
			c0-0.674,0.15-1.049,0.524-1.049s0.599,0.225,0.599,0.749s0,1.423,0.224,2.322c1.048,4.646,5.985,6.294,10.399,6.294
			c6.509,0,9.876-3.671,9.876-8.466c0-4.57-2.47-6.743-8.305-11.088l-2.992-2.248c-7.107-5.319-9.427-9.215-9.427-13.636
			c0-7.492,5.91-11.987,14.589-11.987c2.618,0,5.236,0.375,6.808,0.75c1.271,0.299,1.796,0.299,2.319,0.299s0.673,0.075,0.673,0.45
			c0,0.3-0.299,2.397-0.299,6.743c0,0.974-0.075,1.424-0.523,1.424c-0.449,0-0.524-0.3-0.599-0.824
			c-0.075-0.749-0.599-2.472-0.973-3.146c-0.449-0.75-2.618-3.147-8.529-3.147c-4.788,0-8.753,2.397-8.753,6.893
			c0,4.046,2.021,6.369,8.529,10.789l1.87,1.274c8.005,5.469,10.773,9.89,10.773,15.359c0,3.746-1.422,7.792-6.135,10.863
			c-2.769,1.799-6.883,2.248-10.475,2.248C290.4,58.513,286.585,58.064,283.892,56.791z"/>
	</g>
	<text transform="matrix(-0.9045 0 0 -1 309.9863 59.7017)"><tspan x="0" y="0" fill="#A6A8AB" font-family="'TrajanPro-Regular'" font-size="53.9629">A</tspan><tspan x="37.774" y="0" fill="#A6A8AB" font-family="'TrajanPro-Regular'" font-size="53.9629">n</tspan><tspan x="81.646" y="0" fill="#A6A8AB" font-family="'TrajanPro-Regular'" font-size="53.9629">i</tspan><tspan x="102.637" y="0" fill="#A6A8AB" font-family="'TrajanPro-Regular'" font-size="53.9629">m</tspan><tspan x="153.469" y="0" fill="#A6A8AB" font-family="'TrajanPro-Regular'" font-size="53.9629">aci</tspan></text>
	<text transform="matrix(-0.9045 0 0 -1 40.6582 59.4692)" fill="#A6A8AB" font-family="'TrajanPro-Regular'" font-size="53.9629">n</text>
</g>
</svg>
