<?xml version="1.0" encoding="utf-8"?>
<!-- Generator: Adobe Illustrator 16.0.4, SVG Export Plug-In . SVG Version: 6.00 Build 0)  -->
<!DOCTYPE svg PUBLIC "-//W3C//DTD SVG 1.1//EN" "http://www.w3.org/Graphics/SVG/1.1/DTD/svg11.dtd">
<svg version="1.1" id="Layer_1" xmlns="http://www.w3.org/2000/svg" xmlns:xlink="http://www.w3.org/1999/xlink" x="0px" y="0px"
	 width="232.544px" height="80px" viewBox="0 0 232.544 80" enable-background="new 0 0 232.544 80" xml:space="preserve">
<g>
	<g>
		<g>
			<path fill="#FFFFFF" d="M76.295,6.414c-0.156,0-0.312,0.011-0.469,0.013c0,0.001,0,0.013,0,0.024
				c-0.01,0.248-0.029,0.493-0.042,0.745c0.001,0.334,0,0.675-0.001,1.009c0.079,0.002,0.151-0.008,0.233-0.006
				c7.769,0.126,14.696,5.984,14.696,17.388c0,13.755-13.605,16.971-23.591,16.797l-0.099,0.509
				c14.148,0.681,28.726-8.264,28.726-18.651C95.748,13.18,87.359,6.414,76.295,6.414z"/>
		</g>
		<g>
			<path fill="#FFFFFF" d="M44.064,75.038c-0.09,0-0.354,0.079-0.663,0.218c-1.472,0.621-4.572,1.644-6.754,1.861
				c-0.745,0.093-1.193,0-1.331,0c-0.172,0-0.393,0.125-0.172,0.527c0.484,0.896,0.796,1.518,1.108,1.952
				C36.476,79.907,36.564,80,36.693,80c0.228,0,0.495-0.128,1.244-0.584c0.312-0.163,4.441-2.656,6.038-3.758
				c0.218-0.148,0.311-0.229,0.311-0.368C44.285,75.117,44.146,75.038,44.064,75.038z"/>
			<path fill="#FFFFFF" d="M46.629,70.898c-6.523,0.359-10.794-5.243-10.921-13.892c-0.118-8.795,6.916-11.712,10.843-12.515
				c8.821-1.819,20.306-1.613,20.542-1.597c0.005-0.278,0,0,0.028-0.511c-7.01-0.094-11.543-0.759-19.966-0.04
				c-9.219,0.168-15.435,7.398-15.435,15.741c0,8.623,6.023,14.299,14.99,14.139C46.626,71.785,46.651,71.343,46.629,70.898z"/>
		</g>
		<path fill="#FFFFFF" d="M78.353,8.418c-5.027-1.014-18.375,2.407-13.583,20.234c1.84,6.834,8.168,40.881-18.06,43.572
			c-0.072,0.004-0.159-1.319-0.159-1.319c18.722-3.237,12.975-35.683,11.55-42.202C54.187,6.352,75.826,6.427,75.826,6.427"/>
	</g>
	<g>
		<path fill="#FFFFFF" d="M50.763,35.878c0.221,2.009,0.612,5.147,3.021,5.932c1.615,0.495,3.07,0.495,3.633,0.495
			c0.28,0,0.441,0.068,0.441,0.289c0,0.336-0.504,0.492-1.172,0.492c-1.227,0-7.266-0.156-9.336-0.32
			c-1.284-0.124-0.903,0.264-0.903-0.004c0-0.221,0.117-0.153,0.117-0.831c0-0.276-0.046-1.129-0.156-2.144l-2.689-28.87h-0.16
			L29.861,40.021c-1.175,2.449-1.343,2.965-1.846,2.965c-0.391,0-0.669-0.563-1.726-2.574c-1.456-2.743-6.262-12.424-6.544-12.988
			c-0.501-1.004-6.763-14.435-7.375-15.954h-0.219L9.913,37.442c-0.062,0.897-0.062,1.904-0.062,2.851
			c0,0.842,0.619,1.564,1.455,1.736c0.955,0.22,1.787,0.275,2.129,0.275c0.219,0,0.439,0.117,0.439,0.289
			c0,0.392-0.33,0.492-1.002,0.492c-2.067,0-4.746-0.156-5.199-0.156c-0.5,0-3.18,0.156-4.696,0.156
			c-0.554,0-0.945-0.101-0.945-0.492c0-0.172,0.278-0.289,0.554-0.289c0.452,0,0.843,0,1.678-0.156
			C6.108,41.81,6.28,39.627,6.5,37.496l4.023-36.492C10.584,0.392,10.805,0,11.14,0c0.338,0,0.559,0.219,0.84,0.84l17.098,35.197
			L45.515,0.894C45.736,0.392,45.956,0,46.347,0c0.392,0,0.563,0.449,0.673,1.506L50.763,35.878z"/>
		<path fill="#FFFFFF" d="M103.526,20.88c0-7.389,0-8.737-0.11-10.245c-0.11-1.629-0.391-2.412-2.008-2.634
			c-0.391-0.052-1.234-0.11-1.676-0.11c-0.168,0-0.391-0.221-0.391-0.392c0-0.282,0.222-0.392,0.781-0.392
			c2.229,0,5.421,0.11,5.702,0.11c0.331,0,10.617,0.061,11.739,0c0.938-0.05,1.837-0.22,2.229-0.281
			c0.219-0.05,0.44-0.221,0.66-0.221c0.172,0,0.236,0.221,0.236,0.453c0,0.332-0.286,0.896-0.395,2.23
			c-0.062,0.454-0.159,2.576-0.283,3.137c-0.047,0.222-0.219,0.503-0.438,0.503c-0.29,0-0.391-0.221-0.391-0.612
			c0-0.335-0.056-1.118-0.292-1.679c-0.321-0.784-0.834-1.116-3.514-1.458c-0.843-0.11-6.543-0.167-7.101-0.167
			c-0.226,0-0.273,0.167-0.273,0.509v12.928c0,0.332,0,0.503,0.273,0.503c0.614,0,7.101,0,8.214-0.113
			c1.175-0.115,1.909-0.169,2.4-0.671c0.339-0.342,0.559-0.616,0.73-0.616s0.287,0.114,0.287,0.391c0,0.273-0.287,1.058-0.395,2.625
			c-0.112,0.957-0.23,2.746-0.23,3.078c0,0.392-0.101,0.897-0.444,0.897c-0.22,0-0.337-0.163-0.337-0.445
			c0-0.453,0-0.956-0.226-1.569c-0.167-0.674-0.611-1.228-2.513-1.458c-1.328-0.16-6.588-0.221-7.424-0.221
			c-0.289,0-0.337,0.172-0.337,0.333v3.981c0,1.616-0.058,7.156,0,8.111c0.106,3.186,1.002,3.809,5.871,3.809
			c1.271,0,3.62,0,4.917-0.511c1.273-0.553,1.956-1.399,2.225-3.298c0.122-0.564,0.221-0.724,0.516-0.724
			c0.267,0,0.326,0.391,0.326,0.724c0,0.331-0.387,3.578-0.67,4.596c-0.341,1.225-0.832,1.225-2.74,1.225
			c-3.693,0-6.531-0.12-8.539-0.173c-2.077-0.104-3.361-0.104-4.083-0.104c-0.119,0-1.064,0-2.128,0.056
			c-0.954,0.048-2.067,0.101-2.849,0.101c-0.502,0-0.784-0.101-0.784-0.389c0-0.156,0.11-0.393,0.392-0.393
			c0.448,0,1.064-0.156,1.504-0.228c0.953-0.161,1.064-1.114,1.287-2.511c0.278-1.961,0.278-5.711,0.278-10.292V20.88z"/>
		<path fill="#FFFFFF" d="M130.974,20.88c0-7.389,0-8.737-0.122-10.245c-0.097-1.629-0.391-2.524-2.005-2.745
			c-0.392-0.058-1.224-0.11-1.677-0.11c-0.157,0-0.387-0.111-0.387-0.282c0-0.282,0.229-0.392,0.781-0.392
			c2.236,0,5.415,0.11,5.699,0.11c1.176,0,3.459-0.11,5.758-0.11c8.221,0,10.336,4.754,10.336,7.278c0,3.75-2.459,6.103-4.978,8.333
			c3.741,1.127,8.658,4.534,8.658,9.914c0,5.317-3.963,10.575-12.349,10.575c-0.884,0-2.669-0.049-4.235-0.173
			c-1.565-0.048-2.96-0.104-3.19-0.104c-0.112,0-1.012,0.056-2.021,0.056c-1.002,0.048-2.177,0.101-2.96,0.101
			c-0.488,0-0.782-0.101-0.782-0.389c0-0.156,0.122-0.275,0.392-0.275c0.453,0,1.078-0.173,1.517-0.221
			c0.954-0.172,1.052-1.238,1.28-2.635c0.284-1.961,0.284-5.711,0.284-10.292V20.88z M135.221,21.885c0,0.33,0.107,0.44,0.327,0.502
			c0.294,0.056,1.175,0.22,3.028,0.22c2.738,0,3.798-0.111,4.8-1.225c1.063-1.176,1.908-2.806,1.908-5.097
			c0-3.64-2.021-7.67-6.938-7.67c-0.551,0-1.721,0.061-2.504,0.233c-0.463,0.108-0.621,0.219-0.621,0.501V21.885z M135.221,27.141
			c0,3.699,0,9.402,0.06,10.134c0.171,2.292,0.171,2.855,1.662,3.578c1.345,0.612,3.427,0.671,4.307,0.671
			c3.253,0,7.216-1.23,7.216-7.325c0-2.131-0.832-6.211-4.697-8.674c-1.672-1.066-3.234-1.013-4.41-1.238
			c-0.625-0.111-3.075-0.111-3.857-0.111c-0.172,0-0.279,0.111-0.279,0.336V27.141z"/>
		<path fill="#FFFFFF" d="M164.735,29.274c0,4.582,0,8.331,0.221,10.292c0.171,1.397,0.339,2.291,1.786,2.511
			c0.733,0.124,1.786,0.228,2.229,0.228c0.291,0,0.389,0.236,0.389,0.393c0,0.232-0.221,0.389-0.781,0.389
			c-2.732,0-5.921-0.156-6.143-0.156c-0.269,0-3.351,0.156-4.867,0.156c-0.488,0-0.782-0.101-0.782-0.389
			c0-0.156,0.122-0.393,0.391-0.393c0.462,0,1.077-0.104,1.518-0.228c0.953-0.22,1.124-1.114,1.288-2.511
			c0.228-1.961,0.276-5.711,0.276-10.292V20.88c0-7.389,0-8.737-0.118-10.245c-0.102-1.629-0.493-2.353-1.564-2.573
			c-0.545-0.113-1.168-0.172-1.496-0.172c-0.223,0-0.393-0.221-0.393-0.392c0-0.282,0.221-0.392,0.783-0.392
			c1.614,0,4.696,0.11,4.965,0.11c0.222,0,3.41-0.11,4.917-0.11c0.562,0,0.782,0.11,0.782,0.392c0,0.171-0.22,0.392-0.391,0.392
			c-0.336,0-0.66,0-1.222,0.11c-1.347,0.282-1.616,0.955-1.738,2.634c-0.049,1.508-0.049,2.855-0.049,10.245V29.274z"/>
		<path fill="#FFFFFF" d="M176.136,20.88c0-7.389,0-8.737-0.122-10.245c-0.097-1.514-0.392-2.412-2.006-2.634
			c-0.391-0.052-1.225-0.11-1.682-0.11c-0.156,0-0.387-0.221-0.387-0.392c0-0.282,0.23-0.392,0.781-0.392
			c2.24,0,5.201,0.11,5.642,0.11c0.452,0,3.521-0.11,4.983-0.11c0.545,0,0.839,0.11,0.839,0.392c0,0.171-0.222,0.392-0.452,0.392
			c-0.332,0-0.623,0-1.235,0.11c-1.274,0.223-1.566,1.066-1.665,2.634c-0.121,1.508-0.121,2.855-0.121,10.245v6.654
			c0,6.887,1.516,9.741,3.645,11.641c2.397,2.193,4.524,2.585,7.312,2.585c3.01,0,5.921-1.349,7.608-3.37
			c2.274-2.744,2.788-6.654,2.788-11.532V20.88c0-7.389-0.051-8.737-0.121-10.245c-0.051-1.514-0.318-2.412-1.957-2.634
			c-0.39-0.052-1.224-0.11-1.663-0.11c-0.22,0-0.392-0.221-0.392-0.392c0-0.282,0.22-0.392,0.782-0.392
			c2.177,0,5.019,0.11,5.309,0.11c0.335,0,2.679-0.11,4.133-0.11c0.562,0,0.784,0.11,0.784,0.392c0,0.171-0.172,0.392-0.394,0.392
			c-0.34,0-0.61,0-1.221,0.11c-1.348,0.282-1.636,1.066-1.738,2.634c-0.121,1.508-0.054,2.855-0.054,10.245v5.084
			c0,5.15-0.68,10.919-4.594,14.275c-3.57,3.083-7.363,3.471-10.273,3.471c-1.621,0-6.775-0.112-10.226-3.36
			c-2.407-2.243-4.305-5.538-4.305-12.479V20.88z"/>
		<path fill="#FFFFFF" d="M212.074,42.422c-0.684-0.345-0.734-0.506-0.734-1.789c0-2.353,0.221-4.252,0.287-5.036
			c0-0.503,0.104-0.784,0.387-0.784c0.28,0,0.451,0.168,0.451,0.559s0,1.059,0.172,1.732c0.782,3.468,4.459,4.707,7.754,4.707
			c4.868,0,7.389-2.745,7.389-6.323c0-3.419-1.857-5.039-6.214-8.284l-2.226-1.678c-5.309-3.981-7.046-6.887-7.046-10.191
			c0-5.592,4.407-8.949,10.896-8.949c1.951,0,3.907,0.277,5.078,0.551c0.953,0.231,1.346,0.231,1.736,0.231
			c0.392,0,0.513,0.05,0.513,0.332c0,0.221-0.222,1.789-0.222,5.036c0,0.728-0.07,1.066-0.389,1.066
			c-0.343,0-0.393-0.221-0.464-0.612c-0.051-0.563-0.442-1.85-0.71-2.353c-0.343-0.563-1.957-2.353-6.385-2.353
			c-3.572,0-6.532,1.789-6.532,5.146c0,3.027,1.511,4.756,6.361,8.064l1.399,0.95c5.987,4.086,8.051,7.383,8.051,11.476
			c0,2.792-1.061,5.82-4.582,8.111c-2.062,1.349-5.137,1.682-7.828,1.682C216.939,43.711,214.079,43.378,212.074,42.422z"/>
	</g>
	<text transform="matrix(-0.9045 0 0 -1 231.5596 44.5938)" fill="#A6A8AB" font-family="'TrajanPro-Regular'" font-size="40.3102">Animaci</text>
	<text transform="matrix(-0.9045 0 0 -1 30.3716 44.4229)" fill="#A6A8AB" font-family="'TrajanPro-Regular'" font-size="40.3102">n</text>
</g>
</svg>
